<svg width="129" height="34" viewBox="0 0 129 34" xmlns="http://www.w3.org/2000/svg">
    <defs>
        <linearGradient x1="50.006%" y1=".045%" x2="50.006%" y2="100.025%" id="a">
            <stop stop-color="#81B4E0" offset="0%"/>
            <stop stop-color="#0C5A94" offset="100%"/>
        </linearGradient>
        <linearGradient x1="50%" y1=".138%" x2="50%" y2="71.693%" id="b">
            <stop stop-color="#F06B59" offset="0%"/>
            <stop stop-color="#DF2227" offset="100%"/>
        </linearGradient>
        <linearGradient x1="26.14%" y1="81.96%" x2="49.131%" y2="38.283%" id="c">
            <stop stop-color="#388B41" offset="0%"/>
            <stop stop-color="#4CB749" offset="100%"/>
        </linearGradient>
        <linearGradient x1="58.473%" y1="85.352%" x2="35.594%" y2="12.208%" id="d">
            <stop stop-color="#E4B022" offset="0%"/>
            <stop stop-color="#FCD209" offset="30%"/>
        </linearGradient>
        <linearGradient x1="49.998%" y1="96.297%" x2="49.998%" y2="-2.467%" id="e">
            <stop stop-opacity=".15" offset="0%"/>
            <stop stop-opacity=".06" offset="30%"/>
            <stop stop-opacity=".03" offset="100%"/>
        </linearGradient>
        <linearGradient x1="71.183%" y1="8.541%" x2="28.697%" y2="78.541%" id="f">
            <stop stop-opacity=".15" offset="0%"/>
            <stop stop-opacity=".06" offset="30%"/>
            <stop stop-opacity=".03" offset="100%"/>
        </linearGradient>
        <linearGradient x1="39.929%" y1="66.766%" x2="47.695%" y2="52.743%" id="g">
            <stop stop-opacity=".15" offset="0%"/>
            <stop stop-opacity=".06" offset="30%"/>
            <stop stop-opacity=".03" offset="100%"/>
        </linearGradient>
    </defs>
    <g fill-rule="nonzero" fill="none">
        <g fill="#77787A">
            <path d="M49.577 23.91c-.664.317-2.137.806-4.015.806-4.216 0-6.96-2.847-6.96-7.102 0-4.284 2.946-7.418 7.509-7.418 1.502 0 2.83.374 3.524.747l-.578 1.927c-.607-.316-1.56-.661-2.946-.661-3.206 0-4.939 2.386-4.939 5.262 0 3.22 2.08 5.203 4.852 5.203a7.306 7.306 0 0 0 3.12-.66l.433 1.897zM52.552 3.985h2.541v8.712h.058a4.775 4.775 0 0 1 1.82-1.811 5.228 5.228 0 0 1 2.599-.69c1.877 0 4.88 1.15 4.88 5.923v8.28H61.91v-7.993c0-2.242-.838-4.111-3.235-4.111-1.646 0-2.917 1.15-3.408 2.501-.144.374-.173.748-.173 1.208v8.395h-2.542V3.985zM68.58 14.825c0-1.64-.029-3.048-.115-4.342h2.224l.115 2.76h.087c.635-1.869 2.195-3.048 3.899-3.048.26 0 .462.03.693.058v2.386c-.26-.057-.52-.057-.866-.057-1.791 0-3.062 1.323-3.408 3.22a7.539 7.539 0 0 0-.087 1.179v7.418H68.58v-9.574zM90.386 17.326c0 5.147-3.61 7.39-6.96 7.39-3.755 0-6.7-2.76-6.7-7.16 0-4.629 3.09-7.36 6.93-7.36 4.015 0 6.73 2.904 6.73 7.13zm-11.062.144c0 3.048 1.733 5.348 4.217 5.348 2.426 0 4.245-2.272 4.245-5.405 0-2.358-1.184-5.32-4.187-5.32-2.975 0-4.275 2.76-4.275 5.377zM93.592 14.25a69.95 69.95 0 0 0-.116-3.767H95.7l.116 2.272h.086c.78-1.323 2.08-2.56 4.42-2.56 1.876 0 3.32 1.15 3.927 2.79h.058a5.5 5.5 0 0 1 1.588-1.812c.838-.632 1.733-.977 3.061-.977 1.878 0 4.621 1.207 4.621 6.038V24.4h-2.483v-7.85c0-2.703-1.011-4.284-3.033-4.284-1.473 0-2.57 1.064-3.032 2.271a4.302 4.302 0 0 0-.203 1.265V24.4h-2.483v-8.338c0-2.214-.982-3.795-2.917-3.795-1.56 0-2.744 1.265-3.148 2.53-.145.345-.202.805-.202 1.237v8.366h-2.484V14.25zM119.093 17.901c.058 3.422 2.224 4.83 4.794 4.83 1.82 0 2.946-.316 3.87-.718l.463 1.811c-.896.403-2.455.891-4.679.891-4.303 0-6.873-2.846-6.873-7.044 0-4.198 2.483-7.475 6.556-7.475 4.592 0 5.776 3.968 5.776 6.527 0 .517-.03.89-.087 1.178h-9.82zm7.452-1.811c.029-1.581-.665-4.083-3.524-4.083-2.6 0-3.697 2.33-3.898 4.083h7.422z"/>
        </g>
        <ellipse fill="#FFF" cx="17.111" cy="17.065" rx="16.808" ry="16.734"/>
        <path d="M27.807 20.107c0-5.881-4.789-10.649-10.696-10.649-5.908 0-10.696 4.768-10.696 10.65H9.47c0-4.202 3.42-7.607 7.64-7.607s7.64 3.405 7.64 7.606" fill-opacity=".1" fill="#000"/>
        <ellipse fill-opacity=".1" fill="#000" cx="17.875" cy="19.195" rx="5.806" ry="5.781"/>
        <ellipse fill="url(#a)" cx="17.111" cy="17.065" rx="6.265" ry="6.237"/>
        <path d="M32.39 9.458C28.185 1.032 17.914-2.404 9.45 1.784A17.089 17.089 0 0 0 2.9 7.481l6.876 11.866c-1.266-4.007.97-8.278 4.995-9.539a7.671 7.671 0 0 1 2.187-.35" fill="url(#b)"/>
        <path d="M2.9 7.481c-5.263 7.816-3.165 18.4 4.686 23.64a17.164 17.164 0 0 0 8.15 2.83l7.181-12.17c-2.685 3.24-7.5 3.7-10.755 1.026a7.605 7.605 0 0 1-2.386-3.46" fill="url(#c)"/>
        <path d="M15.736 33.95c9.424.71 17.642-6.321 18.355-15.704.23-3.028-.357-6.061-1.7-8.787H16.958c4.22.019 7.624 3.44 7.605 7.64a7.586 7.586 0 0 1-1.646 4.682" fill="url(#d)"/>
        <path d="m2.9 7.481 6.876 11.866a7.575 7.575 0 0 1 .306-5.173l-6.876-7.15" fill="url(#e)"/>
        <path d="m15.736 33.95 7.181-12.17a7.65 7.65 0 0 1-4.43 2.587L15.43 33.95" fill="url(#f)"/>
        <path d="M32.39 9.458H16.959a7.652 7.652 0 0 1 5.96 2.89l9.778-2.433" fill="url(#g)"/>
    </g>
</svg>
