<svg width="111" height="39" viewBox="0 0 111 39" xmlns="http://www.w3.org/2000/svg">
    <g fill="none" fill-rule="evenodd">
        <g>
            <rect fill="#FFDF2A" width="38.299" height="39" rx="7"/>
            <path d="m13.31 32.295-2.906-.79c-1.934-.527-2.453-3.048-.881-4.288l4.187-3.306c.763-.602.51-1.828-.43-2.083l-3.376-.918c-1.668-.453-2.116-2.627-.762-3.697l11.43-9.022a4.323 4.323 0 0 1 3.816-.777l2.907.791c1.934.527 2.452 3.047.88 4.287L23.988 15.8c-.764.603-.511 1.829.429 2.084l3.378.918c1.668.454 2.116 2.627.761 3.697l-11.428 9.02a4.324 4.324 0 0 1-3.818.777z" fill="#FFF"/>
        </g>
        <path d="M89.867 21.305c1.69 0 3.033.398 4.028 1.193.995.794 1.519 1.914 1.57 3.358h-4.662l-.01-.163c-.032-.313-.126-.544-.282-.691a.93.93 0 0 0-.664-.259.586.586 0 0 0-.448.189c-.117.126-.176.301-.176.527 0 .318.172.58.517.785.345.205.894.453 1.648.745.872.331 1.59.65 2.156.954a4.588 4.588 0 0 1 1.473 1.272c.416.543.624 1.225.624 2.047 0 .86-.208 1.633-.624 2.315-.416.682-1.02 1.216-1.814 1.6-.794.384-1.737.576-2.829.576-1.652 0-3.014-.394-4.087-1.182-1.073-.789-1.655-1.945-1.746-3.468h4.604l.017.156c.096.704.442 1.056 1.036 1.056.235 0 .433-.056.595-.169.163-.112.244-.288.244-.527 0-.33-.175-.599-.526-.804-.352-.206-.898-.44-1.64-.706-.884-.318-1.615-.63-2.194-.934a4.279 4.279 0 0 1-1.492-1.331c-.416-.583-.618-1.332-.605-2.246 0-.914.23-1.693.693-2.335.461-.643 1.092-1.13 1.892-1.461.8-.331 1.7-.497 2.702-.497zm-34.488.239v3.497h-5.424v1.948h3.902v3.319h-3.902v5.306h-4.33v-14.07h9.754zm6.853 0v10.731h4.175v3.34H57.9V21.543h4.33zm15.67 0 5.034 14.07H78.37l-.683-2.126h-4.604l-.683 2.126h-4.545l5.052-14.07h4.995zm24.65 0v5.067h4.117v-5.067H111v14.07h-4.33V30.13h-4.117v5.485h-4.331v-14.07h4.33zm-27.166 4.71-1.249 3.915h2.498l-1.249-3.915zM50.521 3.135c1.69 0 3.034.397 4.029 1.192.995.795 1.518 1.915 1.57 3.359h-4.662l-.011-.163c-.032-.314-.126-.544-.282-.692a.93.93 0 0 0-.663-.258.586.586 0 0 0-.45.189c-.116.126-.175.301-.175.527 0 .318.173.58.517.785.345.205.894.453 1.649.745.871.331 1.59.649 2.155.954a4.588 4.588 0 0 1 1.473 1.272c.417.543.625 1.225.625 2.047 0 .86-.208 1.633-.625 2.315-.416.682-1.02 1.216-1.814 1.6-.793.384-1.736.576-2.829.576-1.651 0-3.014-.394-4.087-1.182-1.073-.789-1.655-1.945-1.746-3.468H49.8l.017.156c.096.704.442 1.056 1.037 1.056.234 0 .432-.056.595-.169.162-.113.244-.288.244-.527 0-.33-.176-.6-.527-.805-.351-.205-.898-.44-1.639-.705-.884-.318-1.616-.63-2.195-.934a4.279 4.279 0 0 1-1.492-1.332c-.416-.583-.618-1.331-.605-2.245 0-.914.231-1.693.693-2.335.462-.643 1.092-1.13 1.892-1.461.8-.331 1.7-.497 2.702-.497zm16.504.238v3.518h-4.877v1.73h4.292v3.318h-4.292v1.987h4.877v3.518h-9.208V3.374h9.208zm5.97 0v10.732h4.175v3.339h-8.506V3.374h4.33zm9.871 0v10.732h4.175v3.339h-8.506V3.374h4.331zm14.748 0v3.518h-4.877v1.73h4.292v3.318h-4.292v1.987h4.877v3.518h-9.208V3.374h9.208zm8.077 0 .33.007c.978.036 1.824.236 2.538.6.793.404 1.388.954 1.785 1.65.396.695.595 1.48.595 2.354 0 .94-.257 1.776-.77 2.504-.515.729-1.253 1.252-2.215 1.57l3.004 5.386h-4.76l-2.594-5.048h-.02v5.048h-4.33V3.374h6.437zm-.39 3.697h-1.717v2.385h1.717c.416 0 .728-.096.936-.288.208-.192.312-.494.312-.905 0-.37-.107-.662-.322-.874-.214-.212-.523-.318-.926-.318z" fill="#292727" fill-rule="nonzero"/>
    </g>
</svg>
